<svg width="16" height="16" viewBox="0 0 16 16" fill="none" xmlns="http://www.w3.org/2000/svg">
<path d="M7.99765 13C8.27699 13 8.51389 12.9036 8.70833 12.7107C8.90278 12.5178 9 12.2817 9 12.0024C9 11.723 8.90356 11.4861 8.71069 11.2917C8.5178 11.0972 8.28169 11 8.00235 11C7.72301 11 7.48611 11.0964 7.29167 11.2893C7.09722 11.4822 7 11.7183 7 11.9976C7 12.277 7.09644 12.5139 7.28931 12.7083C7.4822 12.9028 7.71831 13 7.99765 13ZM8.00575 16C6.90469 16 5.86806 15.7917 4.89583 15.375C3.92361 14.9583 3.07292 14.3854 2.34375 13.6562C1.61458 12.9271 1.04167 12.0767 0.625 11.105C0.208333 10.1334 0 9.09519 0 7.99046C0 6.88571 0.208333 5.85069 0.625 4.88542C1.04167 3.92014 1.61458 3.07292 2.34375 2.34375C3.07292 1.61458 3.92332 1.04167 4.89496 0.625C5.86661 0.208333 6.90481 0 8.00954 0C9.11429 0 10.1493 0.208333 11.1146 0.625C12.0799 1.04167 12.9271 1.61458 13.6562 2.34375C14.3854 3.07292 14.9583 3.92169 15.375 4.89008C15.7917 5.85849 16 6.89321 16 7.99425C16 9.09531 15.7917 10.1319 15.375 11.1042C14.9583 12.0764 14.3854 12.9271 13.6562 13.6562C12.9271 14.3854 12.0783 14.9583 11.1099 15.375C10.1415 15.7917 9.10679 16 8.00575 16ZM8.06692 4.45833C8.40478 4.45833 8.70726 4.56375 8.97435 4.77458C9.24145 4.9854 9.375 5.24893 9.375 5.56517C9.375 5.85506 9.28685 6.11806 9.11056 6.35417C8.93427 6.59028 8.73075 6.80556 8.5 7C8.18056 7.27778 7.88889 7.58333 7.625 7.91667C7.36111 8.25 7.22917 8.625 7.22917 9.04167C7.22917 9.25 7.30333 9.42361 7.45167 9.5625C7.6 9.70139 7.77306 9.77083 7.97083 9.77083C8.19399 9.77083 8.3831 9.69792 8.53819 9.55208C8.69328 9.40625 8.79167 9.22222 8.83333 9C8.88889 8.70833 9.01389 8.45044 9.20833 8.22631C9.40278 8.0022 9.61111 7.78827 9.83333 7.58452C10.1528 7.29206 10.4236 6.96049 10.6458 6.58979C10.8681 6.21908 10.9792 5.8211 10.9792 5.39583C10.9792 4.6875 10.691 4.10764 10.1146 3.65625C9.53819 3.20486 8.86744 2.97917 8.10233 2.97917C7.57372 2.97917 7.07382 3.09722 6.60262 3.33333C6.13143 3.56944 5.74194 3.91158 5.43417 4.35973C5.32528 4.50987 5.29514 4.67494 5.34375 4.85496C5.39236 5.03499 5.49306 5.1875 5.64583 5.3125C5.84028 5.46528 6.04861 5.51042 6.27083 5.44792C6.49306 5.38542 6.68056 5.25694 6.83333 5.0625C6.98611 4.86806 7.16909 4.71875 7.38227 4.61458C7.59544 4.51042 7.82365 4.45833 8.06692 4.45833Z" fill="#AA8500"/>
</svg>
